<svg
  version="1.1"
  id="Layer_1"
  xmlns="http://www.w3.org/2000/svg"
  xmlns:xlink="http://www.w3.org/1999/xlink"
  viewBox="0 0 64 64"
  xml:space="preserve"
  width="300px"
  height="300px"
  fill="#000000"
>
  <g id="SVGRepo_bgCarrier" stroke-width="0"></g>
  <g
    id="SVGRepo_tracerCarrier"
    stroke-linecap="round"
    stroke-linejoin="round"
  ></g>
  <g id="SVGRepo_iconCarrier">
    <g>
      <path
        fill="#F76D57"
        d="M60,3H4C1.791,3,0,4.791,0,7v44c0,2.209,1.791,4,4,4h22h12h22c2.209,0,4-1.791,4-4V7 C64,4.791,62.209,3,60,3z"
      ></path>
      <path
        fill="#394240"
        d="M64,47c0,2.209-1.791,4-4,4H4c-2.209,0-4-1.791-4-4V41h64V47z"
      ></path>
      <path
        fill="#E6E9EE"
        d="M56,11H8c-1.104,0-2,0.896-2,2v22c0,1.104,0.896,2,2,2h48c1.104,0,2-0.896,2-2V13 C58,11.896,57.104,11,56,11z"
      ></path>
      <g>
        <path
          fill="#F9EBB2"
          d="M36.986,35H27.01c-0.57,0-1.083-0.303-1.366-0.795L25,32h14.973l-0.642,2.205 C38.07,34.602,37.553,35,36.986,35z"
        ></path>
        <path
          fill="#3A364D"
          d="M32,44c-1.105,0-2-0.895-2-2v-5h4v5C34,43.105,33.105,44,32,44z"
        ></path>
        <path
          fill="#3A364D"
          d="M36.986,35h-9.976c-0.783,0-1.5-0.386-1.937-1.033c-0.437-0.647-0.554-1.459-0.317-2.202 l0.642-2.205C25.666,29.224,25.989,29,26.355,29H37.64c0.367,0,0.689,0.224,0.958,0.561c0.27,0.337,0.372,0.772,0.292,1.2 l-0.642,2.205c-0.237,0.743-0.793,1.375-1.53,1.675C37.341,34.916,37.16,35,36.986,35z M26.644,31l-0.41,1.41 c-0.087,0.294-0.045,0.611,0.117,0.867c0.161,0.256,0.417,0.424,0.707,0.424h9.976c0.113,0,0.224-0.021,0.331-0.063 c0.272-0.109,0.481-0.32,0.563-0.594L37.355,31H26.644z"
        ></path>
        <path
          fill="#3A364D"
          d="M32,41c-3.31,0-6-2.69-6-6v-4c0-1.104,0.896-2,2-2h8c1.104,0,2,0.896,2,2v4 C38,38.31,35.31,41,32,41z M28,31v4c0,2.209,1.791,4,4,4s4-1.791,4-4v-4H28z"
        ></path>
        <path
          fill="#F76D57"
          d="M32,35c-0.379,0-0.725-0.214-0.895-0.553L30,32l1.105-2.447C31.275,29.214,31.621,29,32,29 s0.725,0.214,0.895,0.553L34,32l-1.105,2.447C32.725,34.786,32.379,35,32,35z"
        ></path>
        <path
          fill="#F76D57"
          d="M32,24c-3.365,0-6.125-2.481-6.693-5.795C25.273,17.775,25.469,17,26.019,17c0.26,0,0.52,0.1,0.719,0.297 c1.191,1.16,2.758,1.803,4.419,1.803s3.228-0.643,4.419-1.803c0.199-0.197,0.459-0.297,0.719-0.297c0.551,0,0.746,0.775,0.711,1.205 C38.125,21.519,35.365,24,32,24z"
        ></path>
        <path
          fill="#3A364D"
          d="M32,25c-3.532,0-6.523-2.514-7.065-5.967c-0.08-0.528,0.089-1.06,0.463-1.451 c0.374-0.39,0.883-0.602,1.413-0.602c0.299,0,0.586,0.058,0.853,0.172c1.043,0.451,2.183,0.683,3.335,0.683s2.292-0.232,3.335-0.683 c0.267-0.114,0.554-0.172,0.853-0.172c0.53,0,1.039,0.212,1.413,0.602c0.374,0.39,0.543,0.923,0.463,1.451 C38.523,22.486,35.532,25,32,25z M26.019,18c-0.138,0-0.273,0.056-0.376,0.161c-0.103,0.105-0.153,0.241-0.133,0.38 C26.004,21.337,28.737,23,32,23s5.996-1.663,6.49-4.459c0.02-0.138-0.03-0.275-0.133-0.38c-0.104-0.105-0.239-0.161-0.376-0.161 c-0.147,0-0.29,0.056-0.4,0.161c-1.264,1.232-2.944,1.839-4.681,1.839s-3.417-0.607-4.681-1.839C26.31,18.056,26.166,18,26.019,18z"
        ></path>
        <path
          fill="#394240"
          d="M36.749,11.658c-1.176-0.628-1.997-1.624-2.411-2.81C33.791,7.556,33.297,7,32.686,7h-1.373 c-0.611,0-1.105,0.556-1.652,1.848c-0.414,1.186-1.235,2.183-2.411,2.81C24.666,13.466,23,15.87,23,18.768V24h18v-5.232 C41,15.87,39.334,13.466,36.749,11.658z"
        ></path>
        <path
          fill="#3A364D"
          d="M41,25H23c-0.553,0-1-0.447-1-1v-5.232c0-3.22,1.816-6.172,4.744-7.706c0.898-0.479,1.577-1.238,1.948-2.174 C29.713,7.194,30.848,6,32.313,6h1.373c1.465,0,2.6,1.194,3.621,2.888c0.372,0.937,1.051,1.695,1.948,2.174 C40.184,12.596,42,15.548,42,18.768V24C42,24.553,41.553,25,41,25z M24,23h16v-4.232c0-2.751-1.562-5.271-4.077-6.613 c-1.271-0.678-2.316-1.74-2.882-3.037C32.494,8.368,31.966,8,31.313,8h-1.373c-0.654,0-1.182,0.368-1.729,1.118 c-0.566,1.297-1.611,2.359-2.882,3.037C25.562,13.497,24,16.017,24,18.768V23z"
        ></path>
        <circle fill="#F76D57" cx="32" cy="27" r="2"></circle>
        <g>
          <path
            fill="#3A364D"
            d="M48,36c-0.359,0-0.715-0.129-0.997-0.391c-0.814-0.75-0.866-2.014-0.115-2.828L51.192,28h-7.385 l4.304-5.149c0.733-0.876,2.034-0.99,2.911-0.256c0.876,0.734,0.99,2.035,0.256,2.911l-7,8.374C49.924,35.721,48.971,36,48,36z"
          ></path>
          <path
            fill="#3A364D"
            d="M16,36c-0.971,0-1.924-0.279-2.745-0.828c-0.876-0.734-0.99-2.035-0.256-2.911l7-8.374 c0.733-0.876,2.035-0.99,2.911-0.256c0.876,0.734,0.99,2.035,0.256,2.911L19.193,28h7.385l4.304-5.149 c0.733-0.876,2.035-0.99,2.911-0.256c0.876,0.734,0.99,2.035,0.256,2.911l-7,8.374C17.714,35.871,16.359,36,16,36z"
          ></path>
        </g>
      </g>
      <path
        fill="#3A364D"
        d="M32,64c-1.104,0-2-0.896-2-2v-2H13.707C12.74,60,12,59.26,12,58.293s0.74-1.707,1.707-1.707h36.586 c0.967,0,1.707,0.74,1.707,1.707S51.967,60,51,60H34v2C34,63.104,33.104,64,32,64z"
      ></path>
      <g>
        <path
          fill="#3A364D"
          d="M48,32H16c-0.553,0-1-0.447-1-1s0.447-1,1-1h32c0.553,0,1,0.447,1,1S48.553,32,48,32z"
        ></path>
        <path
          fill="#3A364D"
          d="M51.293,43H12.707C11.74,43,11,42.26,11,41.293v-1.586C11,38.74,11.74,38,12.707,38h38.586 C52.26,38,53,38.74,53,39.707v1.586C53,42.26,52.26,43,51.293,43z"
        ></path>
      </g>
    </g>
  </g>
</svg>
